# Blender v2.81 (sub 16) OBJ File: ''
# www.blender.org
o Cylinder
v 0.000000 0.000000 -2.000000
v -0.000000 0.199279 -1.578500
v 1.111141 0.000000 -1.662939
v 0.876968 0.199279 -1.312474
v 1.847759 0.000000 -0.765367
v 1.451414 0.199279 -0.612510
v 1.847760 0.000000 0.765367
v 1.451414 0.199279 0.612510
v 1.111141 0.000000 1.662939
v 0.876967 0.199279 1.312474
v -0.000001 0.000000 2.000000
v -0.000000 0.199279 1.578499
v -1.111142 0.000000 1.662939
v -0.876968 0.199279 1.312474
v -1.847760 0.000000 0.765365
v -1.451414 0.199279 0.612509
v -1.847759 0.000000 -0.765369
v -1.451413 0.199279 -0.612512
v -1.111138 0.000000 -1.662941
v -0.876966 0.199279 -1.312476
v 0.993425 0.199279 -1.486765
v 0.000000 0.199279 -1.788117
v 1.652005 0.199279 -0.684283
v 1.652005 0.199279 0.684282
v 0.993425 0.199279 1.486765
v -0.000001 0.199279 1.788117
v -0.993426 0.199279 1.486764
v -1.652006 0.199279 0.684281
v -1.652004 0.199279 -0.684285
v -0.993423 0.199279 -1.486766
v 0.819048 0.101300 -1.225792
v -0.000000 0.101300 -1.474247
v 1.351650 0.101300 -0.576814
v 1.351651 0.101300 0.576814
v 0.819048 0.101300 1.225792
v -0.000000 0.101300 1.474247
v -0.819049 0.101300 1.225791
v -1.351651 0.101300 0.576813
v -1.351650 0.101300 -0.576816
v -0.819046 0.101300 -1.225793
v 0.876968 0.101300 -1.312474
v -0.000000 0.101300 -1.578500
v 1.451414 0.101300 -0.612510
v 1.451414 0.101300 0.612510
v 0.876967 0.101300 1.312474
v -0.000001 0.101300 1.578499
v -0.876968 0.101300 1.312474
v -1.451414 0.101300 0.612509
v -1.451413 0.101300 -0.612512
v -0.876966 0.101300 -1.312476
v 0.819048 0.200000 -1.225792
v -0.000000 0.200000 -1.474247
v 1.351650 0.200000 -0.576814
v 1.351651 0.200000 0.576814
v 0.819048 0.200000 1.225792
v -0.000000 0.200000 1.474247
v -0.819049 0.200000 1.225791
v -1.351651 0.200000 0.576813
v -1.351650 0.200000 -0.576816
v -0.819046 0.200000 -1.225793
vt 0.824810 0.316593
vt 0.877341 0.342931
vt 0.877341 0.332058
vt 0.937308 0.843587
vt 0.879019 0.941030
vt 0.866333 0.923488
vt 0.789985 0.205184
vt 0.779634 0.279574
vt 0.789985 0.275413
vt 0.937308 0.707323
vt 0.879019 0.609880
vt 0.958405 0.699249
vt 0.877341 0.148540
vt 0.818585 0.154964
vt 0.824810 0.164004
vt 0.759270 0.597417
vt 0.639521 0.609881
vt 0.759270 0.576320
vt 0.964696 0.205184
vt 0.936096 0.154964
vt 0.929871 0.164004
vt 0.581232 0.843588
vt 0.560135 0.699250
vt 0.581232 0.707323
vt 0.929871 0.316594
vt 0.975047 0.279574
vt 0.964696 0.275413
vt 0.759270 0.953493
vt 0.639522 0.941030
vt 0.652208 0.923489
vt 0.159395 0.372867
vt 0.253906 0.399355
vt 0.253906 0.399355
vt 0.750000 0.558678
vt 0.550865 0.681607
vt 0.630252 0.923387
vt 0.577103 0.204579
vt 0.633458 0.234241
vt 0.633458 0.221169
vt 0.540189 0.160927
vt 0.569620 0.215448
vt 0.540189 0.084532
vt 0.527299 0.165403
vt 0.569620 0.030012
vt 0.527299 0.080057
vt 0.633458 0.024291
vt 0.577103 0.040881
vt 0.689813 0.040881
vt 0.633458 0.011219
vt 0.726727 0.084533
vt 0.697297 0.030012
vt 0.739617 0.165403
vt 0.739618 0.080057
vt 0.726727 0.160927
vt 0.697296 0.215448
vt 0.689813 0.204579
vt 0.399575 0.184756
vt 0.342176 0.120139
vt 0.342176 0.120139
vt 0.159395 0.111508
vt 0.097486 0.181202
vt 0.097486 0.181202
vt 0.410326 0.181201
vt 0.348418 0.111508
vt 0.348418 0.111508
vt 0.348418 0.372867
vt 0.348418 0.372867
vt 0.097486 0.303174
vt 0.097486 0.303174
vt 0.253906 0.085020
vt 0.253906 0.085020
vt 0.410326 0.303174
vt 0.410326 0.303174
vt 0.159395 0.372867
vt 0.159395 0.111508
vt 0.410326 0.181201
vt 0.342176 0.364236
vt 0.253906 0.388974
vt 0.399575 0.299619
vt 0.165637 0.120139
vt 0.253906 0.095401
vt 0.108238 0.184756
vt 0.108238 0.299620
vt 0.165637 0.364237
vt 0.738699 0.331500
vt 0.636410 0.265591
vt 0.534120 0.331500
vt 0.342176 0.364236
vt 0.108238 0.299620
vt 0.253906 0.095401
vt 0.399575 0.299619
vt 0.165637 0.364237
vt 0.165637 0.120139
vt 0.399575 0.184756
vt 0.253906 0.388974
vt 0.108238 0.184756
vt 0.818585 0.325634
vt 0.958405 0.851661
vt 0.779634 0.201023
vt 0.866333 0.627422
vt 0.877341 0.137667
vt 0.652208 0.627422
vt 0.975047 0.201023
vt 0.560136 0.851661
vt 0.936096 0.325634
vt 0.759270 0.974590
vt 0.750000 0.956947
vt 0.949135 0.681607
vt 0.869749 0.923387
vt 0.949135 0.834018
vt 0.869749 0.592238
vt 0.630251 0.592238
vt 0.550865 0.834018
vt 0.574426 0.463885
vt 0.636410 0.482132
vt 0.534120 0.416224
vt 0.698393 0.463886
vt 0.738699 0.416224
vt 0.698393 0.283838
vt 0.574426 0.283838
vn 0.2035 0.7132 -0.6708
vn 0.5418 0.7132 -0.4447
vn 0.7134 0.7008 -0.0000
vn 0.5418 0.7132 0.4447
vn 0.2035 0.7132 0.6708
vn -0.2035 0.7132 0.6708
vn -0.5418 0.7132 0.4447
vn -0.7134 0.7008 -0.0000
vn -0.5418 0.7132 -0.4447
vn -0.2035 0.7132 -0.6708
vn 0.2903 0.0000 0.9569
vn 0.0000 -1.0000 0.0000
vn 0.0000 1.0000 0.0000
vn 0.7730 0.0000 0.6344
vn 0.7730 0.0000 -0.6344
vn -0.7730 0.0000 -0.6344
vn -0.2903 0.0000 0.9569
vn 1.0000 0.0000 0.0000
vn -0.2903 0.0000 -0.9569
vn -0.7730 0.0000 0.6344
vn 0.2903 0.0000 -0.9569
vn -1.0000 0.0000 0.0000
s off
f 21/1/1 1/2/1 22/3/1
f 23/4/2 3/5/2 21/6/2
f 24/7/3 5/8/3 23/9/3
f 24/10/4 9/11/4 7/12/4
f 26/13/5 9/14/5 25/15/5
f 26/16/6 13/17/6 11/18/6
f 28/19/7 13/20/7 27/21/7
f 29/22/8 15/23/8 28/24/8
f 30/25/9 17/26/9 29/27/9
f 22/28/10 19/29/10 30/30/10
f 20/31/11 42/32/11 2/33/11
f 11/34/12 15/35/12 19/36/12
f 4/37/13 22/38/13 2/39/13
f 6/40/13 21/41/13 4/37/13
f 8/42/13 23/43/13 6/40/13
f 8/42/13 25/44/13 24/45/13
f 12/46/13 25/44/13 10/47/13
f 14/48/13 26/49/13 12/46/13
f 16/50/13 27/51/13 14/48/13
f 16/50/13 29/52/13 28/53/13
f 18/54/13 30/55/13 29/52/13
f 2/39/13 30/55/13 20/56/13
f 34/57/14 55/58/14 35/59/14
f 14/60/15 48/61/15 16/62/15
f 8/63/16 45/64/16 10/65/16
f 2/33/17 41/66/17 4/67/17
f 16/62/18 49/68/18 18/69/18
f 10/65/19 46/70/19 12/71/19
f 4/67/20 43/72/20 6/73/20
f 18/69/14 50/74/14 20/31/14
f 12/71/21 47/75/21 14/60/21
f 6/73/22 44/76/22 8/63/22
f 31/77/13 42/32/13 32/78/13
f 33/79/13 41/66/13 31/77/13
f 34/57/13 43/72/13 33/79/13
f 34/57/13 45/64/13 44/76/13
f 35/59/13 46/70/13 45/64/13
f 37/80/13 46/70/13 36/81/13
f 38/82/13 47/75/13 37/80/13
f 39/83/13 48/61/13 38/82/13
f 39/83/13 50/74/13 49/68/13
f 32/78/13 50/74/13 40/84/13
f 58/85/13 56/86/13 54/87/13
f 32/78/21 51/88/21 31/77/21
f 38/82/22 59/89/22 39/83/22
f 35/59/11 56/90/11 36/81/11
f 31/77/15 53/91/15 33/79/15
f 39/83/16 60/92/16 40/84/16
f 36/81/17 57/93/17 37/80/17
f 33/79/18 54/94/18 34/57/18
f 40/84/19 52/95/19 32/78/19
f 37/80/20 58/96/20 38/82/20
f 21/1/1 3/97/1 1/2/1
f 23/4/2 5/98/2 3/5/2
f 24/7/3 7/99/3 5/8/3
f 24/10/4 25/100/4 9/11/4
f 26/13/5 11/101/5 9/14/5
f 26/16/6 27/102/6 13/17/6
f 28/19/7 15/103/7 13/20/7
f 29/22/8 17/104/8 15/23/8
f 30/25/9 19/105/9 17/26/9
f 22/28/10 1/106/10 19/29/10
f 20/31/11 50/74/11 42/32/11
f 19/36/12 1/107/12 7/108/12
f 1/107/12 3/109/12 7/108/12
f 3/109/12 5/110/12 7/108/12
f 7/108/12 9/111/12 11/34/12
f 11/34/12 13/112/12 15/35/12
f 15/35/12 17/113/12 19/36/12
f 7/108/12 11/34/12 19/36/12
f 4/37/13 21/41/13 22/38/13
f 6/40/13 23/43/13 21/41/13
f 8/42/13 24/45/13 23/43/13
f 8/42/13 10/47/13 25/44/13
f 12/46/13 26/49/13 25/44/13
f 14/48/13 27/51/13 26/49/13
f 16/50/13 28/53/13 27/51/13
f 16/50/13 18/54/13 29/52/13
f 18/54/13 20/56/13 30/55/13
f 2/39/13 22/38/13 30/55/13
f 34/57/14 54/94/14 55/58/14
f 14/60/15 47/75/15 48/61/15
f 8/63/16 44/76/16 45/64/16
f 2/33/17 42/32/17 41/66/17
f 16/62/18 48/61/18 49/68/18
f 10/65/19 45/64/19 46/70/19
f 4/67/20 41/66/20 43/72/20
f 18/69/14 49/68/14 50/74/14
f 12/71/21 46/70/21 47/75/21
f 6/73/22 43/72/22 44/76/22
f 31/77/13 41/66/13 42/32/13
f 33/79/13 43/72/13 41/66/13
f 34/57/13 44/76/13 43/72/13
f 34/57/13 35/59/13 45/64/13
f 35/59/13 36/81/13 46/70/13
f 37/80/13 47/75/13 46/70/13
f 38/82/13 48/61/13 47/75/13
f 39/83/13 49/68/13 48/61/13
f 39/83/13 40/84/13 50/74/13
f 32/78/13 42/32/13 50/74/13
f 51/114/13 52/115/13 53/116/13
f 52/115/13 60/117/13 59/118/13
f 59/118/13 58/85/13 53/116/13
f 58/85/13 57/119/13 56/86/13
f 56/86/13 55/120/13 54/87/13
f 54/87/13 53/116/13 58/85/13
f 52/115/13 59/118/13 53/116/13
f 32/78/21 52/95/21 51/88/21
f 38/82/22 58/96/22 59/89/22
f 35/59/11 55/58/11 56/90/11
f 31/77/15 51/88/15 53/91/15
f 39/83/16 59/89/16 60/92/16
f 36/81/17 56/90/17 57/93/17
f 33/79/18 53/91/18 54/94/18
f 40/84/19 60/92/19 52/95/19
f 37/80/20 57/93/20 58/96/20
