# Blender v2.81 (sub 16) OBJ File: ''
# www.blender.org
mtllib untitled.mtl
o Box001
v 0.787400 0.096850 1.968505
v -0.984250 0.096850 1.574805
v -0.787400 0.096850 1.968505
v 1.968505 0.096850 -0.787400
v 1.574805 0.096850 0.984250
v 1.968505 0.096850 0.787400
v -0.787400 0.096850 -1.968505
v 0.984250 0.096850 -1.574805
v 0.787400 0.096850 -1.968505
v -1.968505 0.096850 0.787400
v -1.574805 0.096850 -0.984250
v -1.968505 0.096850 -0.787400
v -1.968505 -0.100000 -0.787400
v -1.574805 -0.100000 0.984250
v -1.968505 -0.100000 0.787400
v 0.787400 -0.100000 -1.968505
v -0.984250 -0.100000 -1.574805
v -0.787400 -0.100000 -1.968505
v 1.968505 -0.100000 0.787400
v 1.574805 -0.100000 -0.984250
v 1.968505 -0.100000 -0.787400
v -0.787400 -0.100000 1.968505
v 0.984250 -0.100000 1.574805
v 0.787400 -0.100000 1.968505
v 1.574805 0.096850 -1.574805
v 1.574805 0.096850 -0.984250
v 1.574805 0.096850 1.574805
v -1.574805 0.096850 1.574805
v -1.574805 0.096850 0.984250
v -1.574805 0.096850 -1.574805
v -1.574805 -0.100000 -1.574805
v -1.574805 -0.100000 -0.984250
v -1.574805 -0.100000 1.574805
v 1.574805 -0.100000 1.574805
v 1.574805 -0.100000 0.984250
v 1.574805 -0.100000 -1.574805
v 0.984250 0.096850 1.574805
v -0.984250 0.096850 -1.574805
v 0.984250 -0.100000 -1.574805
v -0.984250 -0.100000 1.574805
v 1.968505 0.096850 -1.968505
v 1.968505 0.096850 1.968505
v -1.968505 0.096850 1.968505
v -1.968505 0.096850 -1.968505
v -1.968505 -0.100000 -1.968505
v -1.968505 -0.100000 1.968505
v 1.968505 -0.100000 1.968505
v 1.968505 -0.100000 -1.968505
v 0.984250 -0.100000 -0.984250
v -0.984250 -0.100000 0.984250
v -0.984250 -0.100000 -0.984250
v -0.984250 0.096850 -0.984250
v 0.984250 0.096850 0.984250
v 0.984250 0.096850 -0.984250
v 0.984250 -0.100000 0.984250
v -0.984250 0.096850 0.984250
vt 0.846796 0.009978
vt 0.637637 0.056545
vt 0.660861 0.010053
vt 0.986378 0.335310
vt 0.939810 0.126151
vt 0.986303 0.149374
vt 0.694249 0.879189
vt 0.903408 0.832621
vt 0.880184 0.879114
vt 0.554668 0.553856
vt 0.601235 0.763016
vt 0.554742 0.739792
vt 0.521539 0.335495
vt 0.567939 0.126300
vt 0.521465 0.149559
vt 0.846981 0.474817
vt 0.637786 0.428417
vt 0.661046 0.474892
vt 0.986303 0.149374
vt 0.939903 0.358570
vt 0.986378 0.335310
vt 0.660861 0.010053
vt 0.870056 0.056452
vt 0.846796 0.009978
vt 0.484425 0.337463
vt 0.437979 0.430450
vt 0.437951 0.360724
vt 0.437830 0.058578
vt 0.484351 0.151528
vt 0.437858 0.128305
vt 0.019512 0.151713
vt 0.065959 0.058726
vt 0.065987 0.128453
vt 0.066108 0.430598
vt 0.019587 0.337648
vt 0.066080 0.360872
vt 0.019587 0.337648
vt 0.066108 0.430598
vt 0.066080 0.360872
vt 0.065959 0.058726
vt 0.019512 0.151713
vt 0.065987 0.128453
vt 0.484351 0.151528
vt 0.437830 0.058578
vt 0.437858 0.128305
vt 0.437979 0.430450
vt 0.484425 0.337463
vt 0.437951 0.360724
vt 0.344844 0.012132
vt 0.368104 0.058605
vt 0.158909 0.012206
vt 0.135685 0.058698
vt 0.159094 0.477045
vt 0.135834 0.430570
vt 0.345029 0.476971
vt 0.368253 0.430477
vt 0.345029 0.476971
vt 0.368253 0.430477
vt 0.159094 0.477045
vt 0.135834 0.430570
vt 0.158909 0.012206
vt 0.135685 0.058698
vt 0.344844 0.012132
vt 0.368104 0.058605
vt 0.870056 0.056452
vt 0.939903 0.358570
vt 0.670989 0.832714
vt 0.601142 0.530597
vt 0.568032 0.358719
vt 0.870205 0.428324
vt 0.939810 0.126151
vt 0.637637 0.056545
vt 0.484481 0.476915
vt 0.484296 0.012076
vt 0.019457 0.012262
vt 0.019642 0.477100
vt 0.019642 0.477100
vt 0.019457 0.012262
vt 0.484296 0.012076
vt 0.484481 0.476915
vt 0.870177 0.358598
vt 0.637665 0.126272
vt 0.637758 0.358691
vt 0.637758 0.358691
vt 0.870084 0.126179
vt 0.870177 0.358598
vt 0.846893 0.254018
vt 0.660949 0.230851
vt 0.660958 0.254093
vt 0.742338 0.335407
vt 0.765505 0.149462
vt 0.742263 0.149471
vt 0.660958 0.254093
vt 0.846884 0.230776
vt 0.846893 0.254018
vt 0.742263 0.149471
vt 0.765580 0.335398
vt 0.742338 0.335407
vt 0.870084 0.126179
vt 0.637786 0.428417
vt 0.870205 0.428324
vt 0.637665 0.126272
vt 0.240441 0.477012
vt 0.263627 0.337551
vt 0.240386 0.337560
vt 0.263498 0.012164
vt 0.240311 0.151625
vt 0.263553 0.151616
vt 0.240256 0.012173
vt 0.263553 0.151616
vt 0.240311 0.151625
vt 0.263683 0.477003
vt 0.240386 0.337560
vt 0.263627 0.337551
vt 0.568032 0.358719
vt 0.484393 0.256116
vt 0.344932 0.232930
vt 0.344941 0.256172
vt 0.019545 0.233059
vt 0.159006 0.256246
vt 0.158997 0.233004
vt 0.019554 0.256301
vt 0.158997 0.233004
vt 0.159006 0.256246
vt 0.484384 0.232874
vt 0.344941 0.256172
vt 0.344932 0.232930
vt 0.939931 0.428296
vt 0.567911 0.056573
vt 0.568060 0.428445
vt 0.939782 0.056424
vt 0.567939 0.126300
vt 0.846884 0.230776
vt 0.765580 0.335398
vt 0.660949 0.230851
vt 0.765505 0.149462
vt 0.263683 0.477003
vt 0.240256 0.012173
vt 0.263498 0.012164
vt 0.240441 0.477012
vt 0.484384 0.232874
vt 0.019554 0.256301
vt 0.019545 0.233059
vt 0.484393 0.256116
vt 0.568060 0.428445
vt 0.939782 0.056424
vt 0.939931 0.428296
vt 0.567911 0.056573
vn 0.4398 0.7071 0.5537
vn 0.0000 1.0000 0.0000
vn 0.0000 0.7071 0.7071
vn 0.5537 0.7071 -0.4398
vn 0.7071 0.7071 -0.0000
vn -0.4398 0.7071 -0.5537
vn -0.0000 0.7071 -0.7071
vn -0.5537 0.7071 0.4398
vn -0.7071 0.7071 0.0000
vn -0.5537 -0.7071 -0.4398
vn -0.0000 -1.0000 -0.0000
vn -0.7071 -0.7071 -0.0000
vn 0.4398 -0.7071 -0.5537
vn 0.0000 -0.7071 -0.7071
vn 0.5537 -0.7071 0.4398
vn 0.7071 -0.7071 0.0000
vn -0.4398 -0.7071 0.5537
vn -0.0000 -0.7071 0.7071
vn 0.6705 0.7071 -0.2244
vn 0.6705 0.7071 0.2244
vn -0.6705 0.7071 0.2244
vn -0.6705 0.7071 -0.2244
vn -0.6705 -0.7071 -0.2244
vn -0.6705 -0.7071 0.2244
vn 0.6705 -0.7071 0.2244
vn 0.6705 -0.7071 -0.2244
vn 0.2244 0.7071 0.6706
vn -0.2244 0.7071 0.6706
vn -0.2244 0.7071 -0.6706
vn 0.2244 0.7071 -0.6706
vn 0.2244 -0.7071 -0.6706
vn -0.2244 -0.7071 -0.6706
vn -0.2244 -0.7071 0.6706
vn 0.2244 -0.7071 0.6706
vn -0.0972 0.7071 0.7004
vn 0.7004 0.7071 0.0972
vn 0.0972 0.7071 -0.7004
vn -0.7004 0.7071 -0.0972
vn -0.7004 -0.7071 0.0972
vn -0.0972 -0.7071 -0.7004
vn 0.7004 -0.7071 -0.0972
vn 0.0972 -0.7071 0.7004
vn 0.6936 0.7071 0.1372
vn 0.5773 0.5774 -0.5773
vn 0.5772 0.5774 0.5774
vn 0.6936 0.7071 -0.1372
vn -0.6936 0.7071 -0.1372
vn -0.5773 0.5774 0.5773
vn -0.5773 0.5774 -0.5773
vn -0.6936 0.7071 0.1372
vn -0.6936 -0.7071 0.1372
vn -0.5773 -0.5774 -0.5773
vn -0.5773 -0.5774 0.5773
vn -0.6936 -0.7071 -0.1372
vn 0.6936 -0.7071 -0.1372
vn 0.5773 -0.5774 0.5773
vn 0.5772 -0.5774 -0.5774
vn 0.6936 -0.7071 0.1372
vn -0.1372 0.7071 0.6937
vn 0.5773 0.5774 0.5773
vn -0.5774 0.5774 0.5772
vn 0.1372 0.7071 0.6937
vn 0.1372 0.7071 -0.6937
vn 0.5774 0.5774 -0.5772
vn -0.1372 0.7071 -0.6937
vn -0.1372 -0.7071 -0.6937
vn 0.5773 -0.5774 -0.5773
vn -0.5774 -0.5774 -0.5772
vn 0.1372 -0.7071 -0.6937
vn 0.1372 -0.7071 0.6937
vn 0.5774 -0.5774 0.5772
vn -0.1372 -0.7071 0.6937
vn 0.5769 -0.5773 -0.5779
vn 0.5768 0.5773 0.5780
vn -0.5772 -0.5773 0.5776
vn -0.5774 0.5773 -0.5774
vn 0.5774 -0.5773 0.5774
vn -0.5777 0.5773 0.5771
vn -0.5780 -0.5773 -0.5768
vn 0.5774 0.5773 -0.5774
usemtl Material.001
s off
f 1/1/1 2/2/2 3/3/3
f 4/4/4 5/5/2 6/6/5
f 7/7/6 8/8/2 9/9/7
f 10/10/8 11/11/2 12/12/9
f 13/13/10 14/14/11 15/15/12
f 16/16/13 17/17/11 18/18/14
f 19/19/15 20/20/11 21/21/16
f 22/22/17 23/23/11 24/24/18
f 4/25/19 25/26/2 26/27/2
f 27/28/2 6/29/20 5/30/2
f 10/31/21 28/32/2 29/33/2
f 30/34/2 12/35/22 11/36/2
f 13/37/23 31/38/11 32/39/11
f 33/40/11 15/41/24 14/42/11
f 19/43/25 34/44/11 35/45/11
f 36/46/11 21/47/26 20/48/11
f 1/49/27 27/28/2 37/50/2
f 28/32/2 3/51/28 2/52/2
f 7/53/29 30/34/2 38/54/2
f 25/26/2 9/55/30 8/56/2
f 16/57/31 36/46/11 39/58/11
f 31/38/11 18/59/32 17/60/11
f 22/61/33 33/40/11 40/62/11
f 34/44/11 24/63/34 23/64/11
f 1/1/35 37/65/2 2/2/2
f 4/4/36 26/66/2 5/5/2
f 7/7/37 38/67/2 8/8/2
f 10/10/38 29/68/2 11/11/2
f 13/13/39 32/69/11 14/14/11
f 16/16/40 39/70/11 17/17/11
f 19/19/41 35/71/11 20/20/11
f 22/22/42 40/72/11 23/23/11
f 4/25/43 41/73/44 25/26/2
f 27/28/2 42/74/45 6/29/46
f 10/31/47 43/75/48 28/32/2
f 30/34/2 44/76/49 12/35/50
f 13/37/51 45/77/52 31/38/11
f 33/40/11 46/78/53 15/41/54
f 19/43/55 47/79/56 34/44/11
f 36/46/11 48/80/57 21/47/58
f 1/49/59 42/74/60 27/28/2
f 28/32/2 43/75/61 3/51/62
f 7/53/63 44/76/49 30/34/2
f 25/26/2 41/73/64 9/55/65
f 16/57/66 48/80/67 36/46/11
f 31/38/11 45/77/68 18/59/69
f 22/61/70 46/78/53 33/40/11
f 34/44/11 47/79/71 24/63/72
s 1
f 49/81/11 50/82/11 51/83/11
f 52/84/2 53/85/2 54/86/2
f 24/87/18 3/88/3 22/89/18
f 21/90/16 6/91/5 19/92/16
f 18/93/14 9/94/7 16/95/14
f 15/96/12 12/97/9 13/98/12
f 39/70/11 51/83/11 17/17/11
f 40/72/11 55/99/11 23/23/11
f 38/100/2 54/86/2 8/101/2
f 37/65/2 56/102/2 2/2/2
f 48/103/73 4/104/5 21/105/16
f 42/106/74 19/107/16 6/108/5
f 46/109/75 10/110/9 15/111/12
f 44/112/76 13/113/12 12/114/9
f 20/20/11 55/99/11 49/81/11
f 14/14/11 51/83/11 50/82/11
f 11/115/2 56/102/2 52/84/2
f 5/5/2 54/86/2 53/85/2
f 47/116/77 1/117/3 24/118/18
f 43/119/78 22/120/18 3/121/3
f 45/122/79 7/123/7 18/124/14
f 41/125/80 16/126/14 9/127/7
f 36/128/11 49/81/11 39/70/11
f 32/69/11 17/17/11 51/83/11
f 33/129/11 50/82/11 40/72/11
f 35/71/11 23/23/11 55/99/11
f 30/130/2 52/84/2 38/100/2
f 26/66/2 8/101/2 54/86/2
f 27/131/2 53/85/2 37/65/2
f 29/132/2 2/2/2 56/102/2
f 49/81/11 55/99/11 50/82/11
f 52/84/2 56/102/2 53/85/2
f 24/87/18 1/133/3 3/88/3
f 21/90/16 4/134/5 6/91/5
f 18/93/14 7/135/7 9/94/7
f 15/96/12 10/136/9 12/97/9
f 39/70/11 49/81/11 51/83/11
f 40/72/11 50/82/11 55/99/11
f 38/100/2 52/84/2 54/86/2
f 37/65/2 53/85/2 56/102/2
f 48/103/73 41/137/80 4/104/5
f 42/106/74 47/138/77 19/107/16
f 46/109/75 43/139/78 10/110/9
f 44/112/76 45/140/79 13/113/12
f 20/20/11 35/71/11 55/99/11
f 14/14/11 32/69/11 51/83/11
f 11/115/2 29/132/2 56/102/2
f 5/5/2 26/66/2 54/86/2
f 47/116/77 42/141/74 1/117/3
f 43/119/78 46/142/75 22/120/18
f 45/122/79 44/143/76 7/123/7
f 41/125/80 48/144/73 16/126/14
f 36/128/11 20/20/11 49/81/11
f 32/69/11 31/145/11 17/17/11
f 33/129/11 14/14/11 50/82/11
f 35/71/11 34/146/11 23/23/11
f 30/130/2 11/115/2 52/84/2
f 26/66/2 25/147/2 8/101/2
f 27/131/2 5/5/2 53/85/2
f 29/132/2 28/148/2 2/2/2
